<?xml version="1.0" standalone="no"?><!DOCTYPE svg PUBLIC "-//W3C//DTD SVG 1.1//EN" "http://www.w3.org/Graphics/SVG/1.1/DTD/svg11.dtd"><svg t="1744922127792" class="icon" viewBox="0 0 1024 1024" version="1.1" xmlns="http://www.w3.org/2000/svg" p-id="5448" xmlns:xlink="http://www.w3.org/1999/xlink" width="200" height="200"><path d="M835.9 186.4H732c0.3-1.7 0.5-3.4 0.5-5.2v-56.5c0-18.1-14.4-32.8-31.9-32.8-17.6 0-31.9 14.8-31.9 32.8v56.5c0 1.8 0.2 3.5 0.5 5.2H353.5c0.3-1.7 0.5-3.4 0.5-5.2v-56.5c0-18.1-14.4-32.8-31.9-32.8-17.6 0-31.9 14.8-31.9 32.8v56.5c0 1.8 0.2 3.5 0.5 5.2H186.8c-67.8 0-122.9 56.7-122.9 126.3v493.4c0 69.7 55.2 126.3 122.9 126.3h649.1c67.8 0 122.9-56.7 122.9-126.3V312.8c0-69.7-55.1-126.4-122.9-126.4zM904 806.2c0 38.6-30.5 70-68.1 70H186.8c-37.5 0-68.1-31.4-68.1-70V422.5H904v383.7z m0-438.7H118.7v-54.7c0-38.6 30.5-70 68.1-70h649.1c37.5 0 68.1 31.4 68.1 70v54.7z" fill="#6B400D" p-id="5449"></path><path d="M199.8 716.4c13.7 0 24.8-11.4 24.8-25.5s-11.1-25.5-24.8-25.5c-13.7 0-24.8 11.4-24.8 25.5s11.1 25.5 24.8 25.5zM218 753.5v-0.1-0.8h-0.2c-0.5-11.6-9.1-20.9-19.8-20.9-10.7 0-19.3 9.3-19.8 20.9h-0.1c0.4 58.7 17.7 76.8 72.4 76.8h204.8c11 0 20-9.8 20-21.8s-8.9-21.8-20-21.8H250.6c-32.3 0-32.6 0.7-32.6-32.3zM178.1 752.5v-2.2 2.2zM468.8 713.4c4.4 4.5 10.2 7 16.4 7 4.1 0 8.1-1.1 11.4-3.1 2.1-1.1 4-2.6 5.7-4.3l184.1-189.3c9-9.3 9-24.5 0-33.8-4.4-4.5-10.2-7-16.4-7s-12 2.5-16.4 7l-168.3 173-83.4-85.8c-4.4-4.5-10.2-7-16.4-7-6.2 0-12 2.5-16.4 7-9 9.3-9 24.5 0 33.8l99.7 102.5z" fill="#6B400D" p-id="5450"></path><path d="M835.9 242.8H186.8c-37.5 0-68.1 31.4-68.1 70v54.7H904v-54.7c0-38.6-30.6-70-68.1-70z" fill="#FFD524" p-id="5451"></path></svg>