<svg xmlns="http://www.w3.org/2000/svg" version="1.1" xmlns:xlink="http://www.w3.org/1999/xlink" xmlns:svgjs="http://svgjs.dev/svgjs" width="500" height="500" viewBox="0 0 500 500"><rect width="500" height="500" x="0" y="0" fill="#ffffff"></rect><svg width="500" height="500" viewBox="0 0 500 500" id="frame" x="0" y="0"><g><svg width="460" height="460" viewBox="0 0 250 250" x="20" y="20" style="overflow: visible;"><defs><mask id="SvgjsMask1022"><g fill="#ffffff" filter="url(#white_filter)"><path shape-rendering="crispEdges" d="M100,0h10v10h-10v-10ZM160,0h10v10h-10v-10ZM80,10h10v10h-10v-10ZM100,10h10v10h-10v-10ZM110,10h10v10h-10v-10ZM120,10h10v10h-10v-10ZM130,10h10v10h-10v-10ZM140,10h10v10h-10v-10ZM80,20h10v10h-10v-10ZM90,20h10v10h-10v-10ZM130,20h10v10h-10v-10ZM140,20h10v10h-10v-10ZM150,20h10v10h-10v-10ZM90,30h10v10h-10v-10ZM120,30h10v10h-10v-10ZM130,30h10v10h-10v-10ZM140,30h10v10h-10v-10ZM100,40h10v10h-10v-10ZM110,40h10v10h-10v-10ZM130,40h10v10h-10v-10ZM140,40h10v10h-10v-10ZM150,40h10v10h-10v-10ZM100,50h10v10h-10v-10ZM140,50h10v10h-10v-10ZM160,50h10v10h-10v-10ZM80,60h10v10h-10v-10ZM100,60h10v10h-10v-10ZM120,60h10v10h-10v-10ZM140,60h10v10h-10v-10ZM160,60h10v10h-10v-10ZM90,70h10v10h-10v-10ZM100,70h10v10h-10v-10ZM120,70h10v10h-10v-10ZM140,70h10v10h-10v-10ZM150,70h10v10h-10v-10ZM10,80h10v10h-10v-10ZM20,80h10v10h-10v-10ZM30,80h10v10h-10v-10ZM50,80h10v10h-10v-10ZM60,80h10v10h-10v-10ZM90,80h10v10h-10v-10ZM130,80h10v10h-10v-10ZM160,80h10v10h-10v-10ZM220,80h10v10h-10v-10ZM230,80h10v10h-10v-10ZM30,90h10v10h-10v-10ZM50,90h10v10h-10v-10ZM80,90h10v10h-10v-10ZM130,90h10v10h-10v-10ZM160,90h10v10h-10v-10ZM170,90h10v10h-10v-10ZM190,90h10v10h-10v-10ZM230,90h10v10h-10v-10ZM0,100h10v10h-10v-10ZM10,100h10v10h-10v-10ZM20,100h10v10h-10v-10ZM40,100h10v10h-10v-10ZM60,100h10v10h-10v-10ZM70,100h10v10h-10v-10ZM80,100h10v10h-10v-10ZM90,100h10v10h-10v-10ZM100,100h10v10h-10v-10ZM110,100h10v10h-10v-10ZM120,100h10v10h-10v-10ZM130,100h10v10h-10v-10ZM160,100h10v10h-10v-10ZM190,100h10v10h-10v-10ZM10,110h10v10h-10v-10ZM20,110h10v10h-10v-10ZM40,110h10v10h-10v-10ZM50,110h10v10h-10v-10ZM80,110h10v10h-10v-10ZM110,110h10v10h-10v-10ZM120,110h10v10h-10v-10ZM160,110h10v10h-10v-10ZM170,110h10v10h-10v-10ZM180,110h10v10h-10v-10ZM210,110h10v10h-10v-10ZM220,110h10v10h-10v-10ZM10,120h10v10h-10v-10ZM20,120h10v10h-10v-10ZM30,120h10v10h-10v-10ZM40,120h10v10h-10v-10ZM50,120h10v10h-10v-10ZM60,120h10v10h-10v-10ZM70,120h10v10h-10v-10ZM80,120h10v10h-10v-10ZM110,120h10v10h-10v-10ZM140,120h10v10h-10v-10ZM160,120h10v10h-10v-10ZM170,120h10v10h-10v-10ZM180,120h10v10h-10v-10ZM190,120h10v10h-10v-10ZM200,120h10v10h-10v-10ZM220,120h10v10h-10v-10ZM230,120h10v10h-10v-10ZM240,120h10v10h-10v-10ZM20,130h10v10h-10v-10ZM80,130h10v10h-10v-10ZM110,130h10v10h-10v-10ZM140,130h10v10h-10v-10ZM150,130h10v10h-10v-10ZM160,130h10v10h-10v-10ZM180,130h10v10h-10v-10ZM190,130h10v10h-10v-10ZM200,130h10v10h-10v-10ZM240,130h10v10h-10v-10ZM10,140h10v10h-10v-10ZM20,140h10v10h-10v-10ZM40,140h10v10h-10v-10ZM50,140h10v10h-10v-10ZM60,140h10v10h-10v-10ZM90,140h10v10h-10v-10ZM110,140h10v10h-10v-10ZM120,140h10v10h-10v-10ZM130,140h10v10h-10v-10ZM140,140h10v10h-10v-10ZM170,140h10v10h-10v-10ZM200,140h10v10h-10v-10ZM220,140h10v10h-10v-10ZM230,140h10v10h-10v-10ZM0,150h10v10h-10v-10ZM20,150h10v10h-10v-10ZM30,150h10v10h-10v-10ZM40,150h10v10h-10v-10ZM50,150h10v10h-10v-10ZM90,150h10v10h-10v-10ZM110,150h10v10h-10v-10ZM130,150h10v10h-10v-10ZM140,150h10v10h-10v-10ZM170,150h10v10h-10v-10ZM190,150h10v10h-10v-10ZM200,150h10v10h-10v-10ZM240,150h10v10h-10v-10ZM30,160h10v10h-10v-10ZM60,160h10v10h-10v-10ZM70,160h10v10h-10v-10ZM80,160h10v10h-10v-10ZM100,160h10v10h-10v-10ZM110,160h10v10h-10v-10ZM120,160h10v10h-10v-10ZM130,160h10v10h-10v-10ZM160,160h10v10h-10v-10ZM170,160h10v10h-10v-10ZM180,160h10v10h-10v-10ZM190,160h10v10h-10v-10ZM200,160h10v10h-10v-10ZM210,160h10v10h-10v-10ZM220,160h10v10h-10v-10ZM230,160h10v10h-10v-10ZM240,160h10v10h-10v-10ZM80,170h10v10h-10v-10ZM100,170h10v10h-10v-10ZM130,170h10v10h-10v-10ZM140,170h10v10h-10v-10ZM150,170h10v10h-10v-10ZM160,170h10v10h-10v-10ZM200,170h10v10h-10v-10ZM220,170h10v10h-10v-10ZM240,170h10v10h-10v-10ZM90,180h10v10h-10v-10ZM100,180h10v10h-10v-10ZM110,180h10v10h-10v-10ZM140,180h10v10h-10v-10ZM160,180h10v10h-10v-10ZM180,180h10v10h-10v-10ZM200,180h10v10h-10v-10ZM220,180h10v10h-10v-10ZM230,180h10v10h-10v-10ZM240,180h10v10h-10v-10ZM80,190h10v10h-10v-10ZM110,190h10v10h-10v-10ZM120,190h10v10h-10v-10ZM150,190h10v10h-10v-10ZM160,190h10v10h-10v-10ZM200,190h10v10h-10v-10ZM240,190h10v10h-10v-10ZM90,200h10v10h-10v-10ZM100,200h10v10h-10v-10ZM140,200h10v10h-10v-10ZM160,200h10v10h-10v-10ZM170,200h10v10h-10v-10ZM180,200h10v10h-10v-10ZM190,200h10v10h-10v-10ZM200,200h10v10h-10v-10ZM210,200h10v10h-10v-10ZM80,210h10v10h-10v-10ZM100,210h10v10h-10v-10ZM110,210h10v10h-10v-10ZM140,210h10v10h-10v-10ZM160,210h10v10h-10v-10ZM180,210h10v10h-10v-10ZM200,210h10v10h-10v-10ZM210,210h10v10h-10v-10ZM220,210h10v10h-10v-10ZM230,210h10v10h-10v-10ZM240,210h10v10h-10v-10ZM80,220h10v10h-10v-10ZM90,220h10v10h-10v-10ZM110,220h10v10h-10v-10ZM120,220h10v10h-10v-10ZM130,220h10v10h-10v-10ZM140,220h10v10h-10v-10ZM150,220h10v10h-10v-10ZM160,220h10v10h-10v-10ZM170,220h10v10h-10v-10ZM180,220h10v10h-10v-10ZM200,220h10v10h-10v-10ZM220,220h10v10h-10v-10ZM230,220h10v10h-10v-10ZM80,230h10v10h-10v-10ZM100,230h10v10h-10v-10ZM120,230h10v10h-10v-10ZM130,230h10v10h-10v-10ZM140,230h10v10h-10v-10ZM170,230h10v10h-10v-10ZM180,230h10v10h-10v-10ZM200,230h10v10h-10v-10ZM220,230h10v10h-10v-10ZM90,240h10v10h-10v-10ZM110,240h10v10h-10v-10ZM120,240h10v10h-10v-10ZM130,240h10v10h-10v-10ZM190,240h10v10h-10v-10ZM200,240h10v10h-10v-10ZM210,240h10v10h-10v-10ZM220,240h10v10h-10v-10ZM230,240h10v10h-10v-10ZM240,240h10v10h-10v-10Z"></path></g></mask><svg width="70" height="70" viewBox="0 0 70 70" id="SvgjsSvg1020"><path d="M70,70H0V0h70V70z M10,60h50V10H10V60z M20,20h30v30H20V20z" shape-rendering="crispEdges"></path></svg><mask id="SvgjsMask1023"><g fill="#ffffff" filter="url(#white_filter)"><use xlink:href="#SvgjsSvg1020"></use><use xlink:href="#SvgjsSvg1020" transform="matrix(-1,0,0,1,250,0)"></use><use xlink:href="#SvgjsSvg1020" transform="matrix(1,0,0,-1,0,250)"></use></g></mask><linearGradient x1="0" y1="0" x2="1" y2="1" id="SvgjsLinearGradient1021"><stop stop-color="#000000" offset="0"></stop></linearGradient><filter id="white_filter" x="-20%" y="-20%" width="140%" height="140%" filterUnits="objectBoundingBox" primitiveUnits="userSpaceOnUse" color-interpolation-filters="linearRGB"><feColorMatrix type="matrix" values="0 0 0 0 255 0 0 0 0 255 0 0 0 0 255 0 0 0 1 0" x="-20%" y="-20%" width="140%" height="140%" in="SourceGraphic" result="colormatrix"></feColorMatrix></filter></defs><g mask="url(#SvgjsMask1022)"><rect x="-5" y="-5" width="260" height="260" fill="url(#SvgjsLinearGradient1021)"></rect></g><g mask="url(#SvgjsMask1023)"><rect x="-5" y="-5" width="260" height="260" fill="url(#SvgjsLinearGradient1021)"></rect></g></svg></g></svg></svg>